<?xml version="1.0" encoding="utf-8"?>
<!-- Generator: Adobe Illustrator 26.0.1, SVG Export Plug-In . SVG Version: 6.00 Build 0)  -->
<svg version="1.1" id="Layer_1" xmlns="http://www.w3.org/2000/svg" xmlns:xlink="http://www.w3.org/1999/xlink" x="0px" y="0px"
	 viewBox="0 0 412 102" style="enable-background:new 0 0 412 102;" xml:space="preserve">
<style type="text/css">
	.st0{fill:#FFFFFF;}
</style>
<path d="M64.6,13.3l-12.9-1.1c-0.6-0.1-1.2,0.3-1.4,0.9l-0.5,1.3c-0.3,0.7-1.1,1.1-1.8,0.7l-7.2-3.3c-0.5-0.2-0.8-0.7-0.8-1.2
	L40,8.7c0-0.8-0.7-1.3-1.4-1.3L23.1,8.1c-0.3,0-0.7,0.2-0.9,0.4L9,23.6c-0.2,0.2-0.3,0.5-0.4,0.8L7.7,36.1c0,0.3,0.1,0.7,0.3,1
	l7.1,10.3c0.3,0.4,0.8,0.6,1.3,0.5l4.9-1.7c0.3-0.1,0.6,0,0.8,0.1l6.3,2.7c0.6,0.3,0.9,0.9,0.7,1.6l-1.1,4.1c-0.1,0.4,0,0.9,0.3,1.2
	l5.5,3.1c0.2,0.2,0.3,0.4,0.3,0.7l1.1,5.2c0,0.3,0,0.6-0.2,0.9l-2.5,4.4c-0.2,0.3-0.2,0.8-0.1,1.1l9,19.5c0.2,0.6,0.8,0.9,1.4,0.9
	l15-0.8c0.3,0,0.7-0.2,0.9-0.5l8.3-9.8c0.2-0.2,0.3-0.5,0.3-0.8l0.2-6.3c0-0.6,0.4-1,0.9-1.2l4.8-1.8c0.6-0.2,0.9-0.8,0.9-1.4
	l-1.1-12.5c0-0.4,0.1-0.8,0.4-1.1l9.9-8.7c0.2-0.2,0.3-0.4,0.4-0.7l2-7.4c0.3-1-0.6-1.9-1.6-1.7L79.7,38c-0.6,0.1-1.2-0.1-1.5-0.7
	L65.6,14C65.4,13.6,65,13.4,64.6,13.3"/>
<path d="M82.4,69.5l-0.7,1.1c-0.2,0.3-0.5,0.5-0.8,0.6l-1.8,0.5c-0.6,0.2-1,0.7-1,1.3l0.1,2.7c0,0.3-0.1,0.6-0.2,0.8l-1.1,1.6
	c-0.2,0.2-0.2,0.5-0.2,0.8l0,1.7c0,0.9,0.9,1.5,1.7,1.2l1.4-0.4c0.4-0.1,0.7-0.4,0.8-0.8l4.1-9.8c0.1-0.2,0.1-0.4,0.1-0.7v0
	C84.7,68.8,83.1,68.5,82.4,69.5"/>
<path class="st0" d="M56.7,76.6c-0.8,0.5-3.6,0.9-6.2,0.9c-2.6,0-5.3-0.4-6.2-0.9c-1.4-0.8-1-4-0.6-5.3c0.3-0.9,0.9-2.4,0.9-5.5
	c0-3.3-1.1-9.8-1.1-10.3c-0.1-0.7-0.2-1.3,0.1-1.5c-0.4-0.3-0.1-8.6,0.7-8.9c-0.4,0-0.2-0.9-0.2-1.6c0.1-1.2,1.1-3.9,2-6.9
	c0.4-1.3,1-3.3,1.2-4.9c0.2-1.4,0.1-3.2,0.1-3.9c-0.3-0.3-0.4-0.4-0.3-0.8c0-0.4,0.5-1.5,0.5-1.6c0-0.1,0-0.3-0.2-0.5
	c-0.2-0.2-0.2-0.5-0.1-0.8c0.1-0.4,0.5-0.4,0.8-0.5c0.2,0,1.3-0.2,2.4-0.2c1.1,0,2.2,0.1,2.4,0.2c0.2,0.1,0.7,0.1,0.8,0.5
	c0.1,0.3,0.1,0.6-0.1,0.8c-0.2,0.2-0.2,0.4-0.2,0.5c0,0.2,0.5,1.2,0.6,1.6c0,0.4-0.1,0.5-0.3,0.8c0,0.8,0,2.5,0.2,3.9
	c0.2,1.5,0.8,3.5,1.2,4.9c0.9,3,1.9,5.8,2,6.9c0.1,0.7,0.2,1.6-0.2,1.6c0.8,0.3,1.1,8.6,0.7,8.9c0.3,0.2,0.2,0.8,0.1,1.5
	c0,0.4-1.1,6.9-1.1,10.3c0,3.1,0.6,4.6,0.9,5.5C57.7,72.6,58.1,75.8,56.7,76.6"/>
<path d="M346.7,65c0-1.7,0.9-3.6,2.8-3.6c1.9,0,2.7,1.9,2.7,3.6c0,1.7-0.9,3.5-2.7,3.5C347.6,68.5,346.7,66.7,346.7,65 M355.7,60.6
	c0-0.9,0-2.3-1.7-2.3c-0.9,0-1.6,0.6-1.7,1.5c-0.8-1.1-2-1.6-3.3-1.6c-3.2,0-5.8,3-5.8,6.8c0,4,2.5,6.8,5.8,6.8
	c1.3,0,2.4-0.6,3.3-1.6c0.2,0.9,0.7,1.5,1.7,1.5c1.7,0,1.7-1.4,1.7-2.3V60.6z M342.5,60.4c0-1.7-2.9-2.2-4.3-2.2
	c-3.7,0-6.3,3.2-6.3,6.8c0,3.7,2.5,6.8,6.3,6.8c1.3,0,4.3-0.6,4.3-2.4c0-0.8-0.7-1.5-1.5-1.5c-0.4,0-1.7,0.7-2.6,0.7
	c-1.9,0-3-1.8-3-3.5c0-1.8,1-3.6,3-3.6c1.1,0,1.9,0.7,2.8,0.7C342,62.1,342.5,61.1,342.5,60.4z M328.7,53c-1,0-2,0.9-2,1.9
	c0,1.1,0.9,2,2,2c1.1,0,2-0.9,2-2C330.7,53.9,329.7,53,328.7,53z M326.9,69.6c0,1.2,0.7,1.9,1.8,1.9c1,0,1.8-0.8,1.8-1.9v-9.4
	c0-1.2-0.7-2-1.8-2s-1.8,0.8-1.8,2V69.6z M318.8,69.6c0,1.2,0.7,1.9,1.8,1.9c1,0,1.8-0.8,1.8-1.9v-5.4c0-1.4,1.1-1.8,2.1-2.3
	s2.1-0.6,2.1-1.7c0-1.3-0.9-1.9-1.7-1.9c-1.1,0-1.8,0.5-2.5,1.5h0c0-1.1-0.8-1.5-1.7-1.5c-0.9,0-1.8,0.6-1.8,1.8L318.8,69.6
	L318.8,69.6z M312.4,69.6c0,1.2,0.7,1.9,1.8,1.9c1,0,1.8-0.8,1.8-1.9v-8.1h1.1c1,0,1.8-0.4,1.8-1.5c0-1.1-0.7-1.5-1.8-1.5H316V57
	c0-1.3,0.6-1.3,1.2-1.3c1,0,1.5-0.5,1.5-1.5c0-1.2-1.2-1.6-2.4-1.6c-2.1,0-3.7,1.4-3.7,4v1.8h-0.8c-0.9,0-1.5,0.7-1.5,1.5
	c0,1,0.6,1.5,1.5,1.5h0.8L312.4,69.6L312.4,69.6z M303,57.6L303,57.6l2.3,7.1h-4.6L303,57.6z M295.5,69.1c0,0.1-0.2,0.4-0.2,0.8
	c0,1,0.8,1.7,1.8,1.7c1,0,1.5-0.5,1.8-1.3l0.7-2.3h6.8l0.7,2.3c0.2,0.7,0.8,1.3,1.8,1.3c0.9,0,1.7-0.7,1.7-1.6c0-0.2,0-0.5-0.2-0.9
	l-4.8-13.3c-0.4-1.2-1.3-2-2.6-2c-1.2,0-2.2,0.9-2.6,2L295.5,69.1z"/>
<path d="M405,37.2c0-1.7-2.7-2.5-4.4-2.5c-2.8,0-4.8,1.7-4.8,4.1c0,4,6.1,3.8,6.1,5.4c0,0.7-0.3,1-1.4,1c-1.7,0-2.3-1.2-3.6-1.2
	c-1,0-1.5,1-1.5,1.6c0,1.6,2.9,2.7,4.9,2.7c3,0,5-1.8,5-4.1c0-4-6.1-3.8-6.1-5.4c0-0.7,0.6-1,1.2-1c1.1,0,2.5,1,3.2,1
	C404.4,38.7,405,38,405,37.2 M385.8,40.2c0.2-1.5,1.2-2.7,2.8-2.7c1.6,0,2.6,1.2,2.8,2.7H385.8z M393.4,42.6c1.1,0,1.5-0.5,1.5-1.6
	c0-2.9-2.5-6.4-6.3-6.4c-3.7,0-6.3,3.2-6.3,6.8c0,3.9,2.6,6.8,6.6,6.8c2.6,0,5.7-1.5,5.7-3c0-0.8-0.7-1.5-1.4-1.5
	c-0.9,0-2.2,1.4-4,1.4c-1.6,0-3.1-0.8-3.3-2.5L393.4,42.6L393.4,42.6z M377.5,41.5c0,1.7-0.9,3.5-2.8,3.5c-1.8,0-2.7-1.7-2.7-3.6
	c0-1.6,0.9-3.5,2.7-3.5C376.7,37.8,377.5,39.8,377.5,41.5z M381,36.7c0-1.2-0.7-2-1.8-2c-1,0-1.5,0.5-1.8,1.5
	c-0.7-1.1-2-1.6-3.2-1.6c-3.5,0-5.8,3.3-5.8,6.8c0,3.5,1.7,6.7,5.4,6.7c1.6,0,2.8-0.6,3.5-1.7h0v0.8c0,1.8-1.3,2.8-3,2.8
	c-2,0-3.3-1.1-4.4-1.1c-0.7,0-1.4,0.9-1.4,1.5c0,1.9,4.1,2.6,5.5,2.6c4,0,6.8-2.1,6.8-6.3L381,36.7L381,36.7z M358,41.4
	c0-1.7,0.9-3.6,2.8-3.6c1.9,0,2.7,1.9,2.7,3.6s-0.9,3.5-2.7,3.5C358.9,45,358,43.1,358,41.4z M367,37.1c0-0.9,0-2.3-1.7-2.3
	c-0.9,0-1.6,0.6-1.7,1.5c-0.8-1.1-2-1.6-3.3-1.6c-3.2,0-5.8,3-5.8,6.8c0,4,2.5,6.8,5.8,6.8c1.3,0,2.4-0.6,3.3-1.6
	c0.2,0.9,0.7,1.5,1.7,1.5c1.7,0,1.7-1.4,1.7-2.3V37.1z M346.8,46.1c0,1.2,0.7,2,1.8,2c1,0,1.8-0.8,1.8-2v-5.4c0-1.4,1.1-1.9,2.1-2.3
	c1-0.5,2.1-0.6,2.1-1.7c0-1.3-0.9-1.9-1.7-1.9c-1.1,0-1.8,0.5-2.5,1.5h0c0-1.1-0.8-1.5-1.7-1.5c-0.9,0-1.8,0.6-1.8,1.8L346.8,46.1
	L346.8,46.1z M336.5,40.2c0.2-1.5,1.2-2.7,2.8-2.7c1.6,0,2.6,1.2,2.8,2.7H336.5z M344.1,42.6c1.1,0,1.5-0.5,1.5-1.6
	c0-2.9-2.5-6.4-6.3-6.4c-3.7,0-6.3,3.2-6.3,6.8c0,3.9,2.6,6.8,6.6,6.8c2.6,0,5.7-1.5,5.7-3c0-0.8-0.7-1.5-1.4-1.5
	c-0.9,0-2.2,1.4-4,1.4c-1.6,0-3.1-0.8-3.3-2.5L344.1,42.6L344.1,42.6z M325.2,46.6c0.3,0.9,0.7,1.5,1.9,1.5c1.2,0,1.6-0.6,1.9-1.5
	l3.5-9.1c0.2-0.4,0.2-0.7,0.2-1c0-1.1-0.9-1.7-1.8-1.7c-1,0-1.4,0.7-1.6,1.2l-2.2,6.9h0l-2.2-6.9c-0.2-0.5-0.6-1.2-1.6-1.2
	c-1,0-1.8,0.6-1.8,1.7c0,0.3,0.1,0.6,0.2,1L325.2,46.6z M312.1,40.2c0.2-1.5,1.2-2.7,2.8-2.7c1.6,0,2.6,1.2,2.8,2.7H312.1z
	 M319.7,42.6c1.1,0,1.5-0.5,1.5-1.6c0-2.9-2.5-6.4-6.3-6.4c-3.7,0-6.3,3.2-6.3,6.8c0,3.9,2.6,6.8,6.6,6.8c2.6,0,5.7-1.5,5.7-3
	c0-0.8-0.7-1.5-1.4-1.5c-0.9,0-2.2,1.4-4,1.4c-1.6,0-3.1-0.8-3.3-2.5L319.7,42.6L319.7,42.6z M299.1,40.6h2.6c1.7,0,2.6,0.8,2.6,1.9
	c0,1.4-1,2.1-2.3,2.1h-2.9V40.6z M299.1,33.8h1.9c1.1,0,2,0.6,2,1.7c0,1.2-0.8,1.9-2,1.9h-1.9V33.8z M295.5,46c0,1.2,0.8,1.8,2,1.8
	h5c3.4,0,5.7-1.8,5.7-5.3c0-2.1-1.6-3.9-3.7-4.2v0c1.6-0.7,2.3-1.9,2.3-3.6c0-2.6-2-4.3-4.6-4.3h-4.7c-1.1,0-1.9,0.7-1.9,1.8V46z"/>
<path d="M242.1,26.6c0,0-3,1.2-6.5,5.1c-3.5,3.9-5.5,8.2-4,9.3c0.6,0.4,1.9,0.5,4.3-1.7c1.9-1.7,3.8-3.9,5.1-7.1
	C242.6,28.4,242.1,26.6,242.1,26.6 M261.2,33.5c-3.9-2-6.7-4.4-9.7-5.9c-2.8-1.5-4.6-2-6.9-1.8c-0.4,0-0.9,0.2-0.9,0.2
	s1.2,4-3.5,10.8c-4.7,6.8-9,6.8-10.2,4.9c-1.3-2,0.4-6,3.1-9.6c2.9-3.8,8-6.9,8-6.9s-1.6-1-5.6,1.3c-3.9,2.2-10.5,7.4-16.7,16.2
	c-6.2,8.8-7.4,13.7-8.3,17.5c-0.9,3.8-0.1,7.9,4.1,7.9s9.1-6.5,10.5-8.7c2.6-4.2,4.3-10.6,0.8-9.7c-1.7,0.4-3.1,2.4-4,4.2
	c-0.9,1.9-1.3,3.7-1.3,3.7s-1.5,0.5-3.4,2c-2,1.5-3.2,2.9-3.2,2.9s0-3,2.4-8c2.4-4.9,6.9-7.2,9.4-7.4c2.3-0.2,5.2,1.7,2.7,8.9
	c-2.5,7.1-9.9,15.8-17.7,15.9c-7.2,0.1-11.9-9.1-1.9-25c11-17.7,24-23.1,28.2-23.7c4.2-0.6,5.6,1.2,5.6,1.2s3.5-1.6,8-1.3
	c5.1,0.4,9.1,4,14.4,6.5C263.7,30.9,262.4,32.2,261.2,33.5z M284.3,27.6c-3.6,2.3-8.5,4.4-13.2,3.9c-1.2,1.2-2.5,2.7-3.8,4.2
	c8.2,1.6,15.4-3.5,19.2-7.8c2.4-2.7,3.6-5.1,3.6-5.1S287.9,25.3,284.3,27.6z M273.4,50.7c0.1-0.2,0.1-0.3,0.1-0.3s-0.1-0.7-0.8-0.7
	c-0.8,0-1.9,0.1-4.6,3.2c-2.8,3.1-4.5,5.8-5.9,8.5c-1.6,2.9-2.2,5.1-1.3,5.7c0.3,0.2,0.6,0.2,1,0.1c0.6-0.2,1.3-0.7,2.4-2
	c0.5-0.6,1.1-1.4,1.7-2.3C267.8,60.3,272.5,52.3,273.4,50.7z M244.3,54.1c0.5-1.2,1.1-3.6-0.2-4.6c-1.3-1-4.7,1.3-4.7,3.8
	c0,2.5,2.4,3.6,3,3.7c0.3,0.1,0.4,0.1,0.6-0.2C243.1,56.7,243.9,55.3,244.3,54.1z M241.8,58.6c-0.1,0-1.2-0.5-2.3-1.5
	c-1.1-0.9-1.7-2-1.8-2.1c0-0.1-0.1,0-0.1,0s-0.3,0.2-2.1,2.9c-1.8,2.7-4.6,8.1-2.1,9.1c1.6,0.6,4.3-2.2,5.7-4.1
	c1.4-1.7,2.6-3.9,2.7-4.1C241.9,58.7,241.9,58.6,241.8,58.6z M270.2,64.9c-0.7,1.1-1.5,3.2,0.8,1.9c2.7-1.6,6.6-7.5,6.6-7.5h1.8
	c0,0-2.3,3.7-5.4,7c-2.8,3.1-6.2,5.9-8.5,5.6c-2.8-0.3-1.9-4-1.9-4s-4,4.2-6.8,3.9c-3.7-0.4-2.6-5-2.6-5s-4.2,5.2-7.1,5
	c-4.5-0.3-3.4-5.8-2.1-9.6c0.7-2.1,1.3-3.7,1.3-3.7s-0.4,0.1-1.4,0.3c-0.5,0.1-1.4,0.1-1.4,0.1s-1.9,3.3-3.4,5.3
	c-1.5,2-7.9,8.8-11.6,7.5c-3.5-1.3-2.3-6.6-0.3-10.8c2.9-6.2,11.2-15,16-13.8c5,1.2,0.1,10.2,0.1,10.2s0,0,0.1,0c0.1,0,0.4,0.1,1,0
	c0.9-0.2,1.8-0.5,1.8-0.5s5-10.4,10.5-17.3c5.5-6.8,16.5-18.6,20.8-15.8c1,0.7,0.6,3.1-0.8,6c-0.6,0.2-1.3,0.4-1.9,0.5
	c1-1.7,1.6-3.2,1.8-4.2c0.6-3.5-7.6,3.9-13.5,11.9c-5.9,8-9.4,15.2-9.4,15.2s1.2-0.7,3-2.2c1.9-1.5,4.6-4,7.5-7
	c1.9-2,4.2-4.5,6.4-7.3c0.6,0,1.3-0.1,1.9-0.2c-2.4,3.2-4.9,6.1-7,8.3c-2.3,2.4-4.9,4.9-7.1,6.8c-3.5,3-6.2,4.6-6.2,4.6
	s-5.1,10.4-2.4,11c1.6,0.4,4.9-4.6,4.9-4.6s4.2-6.5,6.8-9.4c3.5-4,6.5-6.3,9.5-6.3c1.8,0,2.8,1.8,2.8,1.8l0.8-1.3h5.1
	C280.4,47.7,271,63.7,270.2,64.9z M284.3,27.6c-3.6,2.3-8.5,4.4-13.2,3.9c-1.2,1.2-2.5,2.7-3.8,4.2c8.2,1.6,15.4-3.5,19.2-7.8
	c2.4-2.7,3.6-5.1,3.6-5.1S287.9,25.3,284.3,27.6z M213.3,35.5h-4.8l-2.7,4.4h4.8L213.3,35.5z M190.5,50.7c2.1-2.8,7.7-12.7,7.7-12.7
	s-0.1-0.7-0.8-0.7c-0.8,0-2.1,0.2-4.7,3.5c-2.6,3.2-4.6,5.8-6.1,8.5c-1.6,2.9-2.3,5-1.4,5.6c0.3,0.2,0.6,0.2,1,0.1
	c0.6-0.2,1.4-0.8,2.5-2C189.2,52.4,189.8,51.6,190.5,50.7z M164.6,37.4c-1.3-1-4.7,1.3-4.7,3.8c0,2.5,3.1,3.2,3.4,3.2
	c0,0,0.4,0.1,0.5-0.2c0.1-0.2,0.5-1,1-2.2C165.3,40.8,165.9,38.4,164.6,37.4z M162.6,45.9c-0.1,0-1.4-0.4-2.6-1.2s-1.8-2-1.9-2.1
	c0-0.1-0.1,0-0.1,0c-0.1,0.1-0.3,0.4-2.1,3.1c-1.8,2.7-4.5,8.1-2,9c1.6,0.6,4.3-2.2,5.8-4.1c1.4-1.7,3-4.4,3-4.6
	C162.8,46,162.7,45.9,162.6,45.9z M202,47.5h1.8c0,0-8.8,12.8-13.8,12.2c-2.8-0.3-2-3.8-2-3.8s-3.9,4.6-7.5,3.7
	c-3.3-0.8-1.2-6.3-1.2-6.3c-0.4,0.2-7.4,8.1-12.4,6.2c-5.2-2-2.5-8.7-1.5-10.7c0.8-1.7,1.8-3.3,1.8-3.3s-0.8,0.2-1.3,0.3
	c-0.5,0.1-1.2,0.3-1.2,0.3s-2.4,4-3.9,6c-1.5,2-7.9,8.8-11.6,7.5c-3.8-1.4-2.8-6.6-0.7-10.8c3.4-6.8,11.5-15.1,16.4-13.9
	c4.9,1.3,0.9,9.3,0.9,9.3s1,0.1,3.3-1.5c3.4-2.3,7.9-8.5,12.7-7.8c2.3,0.3,4.4,2.7,1.5,7.1c-0.9,1.4-2.5,2.7-3.7,1.4
	c-0.7-0.8-0.1-2.2,0.7-3.2c1.1-1.4,2.6-1.2,2.6-1.2s0.8-1.8-1.2-1.8c-1.6,0-5.8,3.9-8.2,7.8c-2.2,3.6-5.4,9.6-2.1,11
	c3,1.2,8.7-5.6,11.4-9.2c2.7-3.6,8.7-11.7,13.8-12c1.8-0.1,2.8,1.5,2.8,1.5l0.6-0.9h5.1c0,0-9.6,16-10.3,17.2
	c-0.6,1-1.4,3.1,0.8,1.9C197.5,53.3,202,47.5,202,47.5z M199.2,73.1c-3.8-2.7-8.5-3.9-12.8-3.7c-4.3,0.2-6.2,3.4-6.2,3.4
	c-1.9-3.4-5.8-5.4-11.7-5.4c-9.6,0.1-19,4.5-26.6,4.5c-7.2,0-12.5-4.5-12.3-12.6c0.3-14.1,12.2-26.8,21.1-32.5
	c5.1-3.3,9.4-4.3,12.2-4c2,0.2,4.5,2.6,2.9,6.1c-2.3,5.1-5.4,4.7-5.3,2.2c0.1-1.6,1.1-2.6,1.9-3.1c0.5-0.4,1.4-0.5,1.9-0.5
	c0.4-0.4,0.8-3.2-2.9-2.2s-8.1,4.5-12.3,9.2c-4.2,4.7-10.8,13.5-12.4,22.7c-0.8,4.3-0.2,12.1,9.9,12c8.6-0.1,21.3-5.7,32.9-5.6
	c4.5,0,8.5,1.3,11.5,3.2C194.3,68.5,197.9,71.2,199.2,73.1z"/>
<path d="M107.6,94.4c-0.8,0-1.5-0.7-1.5-1.5V9c0-0.9,0.7-1.5,1.5-1.5s1.5,0.7,1.5,1.5v83.8C109.2,93.7,108.5,94.4,107.6,94.4"/>
</svg>
