<svg xmlns="http://www.w3.org/2000/svg" viewBox="0 0 854.11 228.45"><defs><style>.cls-1,.cls-2{fill:#fec40e;}.cls-1{fill-rule:evenodd;}</style></defs><title>mantrac logo yellow</title><g id="Layer_2" data-name="Layer 2"><g id="Layer_1-2" data-name="Layer 1"><path class="cls-1" d="M228.45,31.64V196.82a31.73,31.73,0,0,1-31.64,31.63H31.63A31.72,31.72,0,0,1,0,196.82V31.64A31.73,31.73,0,0,1,31.63,0H196.81A31.74,31.74,0,0,1,228.45,31.64Zm-41,72.14a11.28,11.28,0,0,0-16-16l-.11.11a5.64,5.64,0,0,1-8-8l6.43-6.42a11.29,11.29,0,0,0-16-16L77.53,133.91a5.64,5.64,0,1,1-8-8l70-70a11.28,11.28,0,1,0-15.95-16L92.48,71.1a5.64,5.64,0,0,1-8-8l.06-.06a11.28,11.28,0,1,0-16-16L44.93,70.79a11.28,11.28,0,1,0,16,16l7.67-7.67a5.64,5.64,0,0,1,8,8l-39,39a11.28,11.28,0,1,0,16,16l.08-.08a5.64,5.64,0,1,1,8,8l-6.28,6.28a11.28,11.28,0,0,0,16,15.95l76.19-76.18a5.64,5.64,0,1,1,8,8l-70,70a11.28,11.28,0,1,0,16,16l31.27-31.27a5.64,5.64,0,0,1,8,8h0a11.28,11.28,0,1,0,16,15.95l23.68-23.68a11.28,11.28,0,0,0-15.95-15.95l-7.74,7.74a5.64,5.64,0,0,1-8-8Z"/><path class="cls-2" d="M379.37,140.58H354.71l.84-105.09L337.28,140.58h-26l-15.92-103v103H272.83V18.79h41.79s9.95,78.45,11.19,90.86c1-9.08,13-90.86,13-90.86h40.58V140.58"/><path class="cls-2" d="M423,38.1,416.1,91.74h11.41L423,38.1m37.66,102.48H432.39L429.6,110.7H413.48l-4.1,29.89H385.2L405.45,19.21h39.36l15.81,121.38"/><path class="cls-2" d="M545.2,140.58H509c-4.62-17.11-17.79-83.09-21.46-99.51l-.06,99.51H465.28V18.79H504.2c5,18.75,15.33,74.63,18.55,89.2l-.09-89.2H545.2V140.58"/><polyline class="cls-2" points="599.03 140.58 570.39 140.58 570.39 37.76 550.47 37.76 550.47 18.79 618.61 18.79 618.61 37.76 599.03 37.76 599.03 140.58"/><path class="cls-2" d="M656.78,36c-1,0-1.79,0-2.33,0a13.56,13.56,0,0,0-1.49.15V67.47c.45.06,1,.1,1.52.15s1.39,0,2.46,0q5.41,0,8-2.31T667.53,58V45.4c0-3.21-.89-5.59-2.67-7.13S660.39,36,656.78,36m42.91,104.63H672a6.54,6.54,0,0,1-2.49-2.28,6.9,6.9,0,0,1-.79-3.47V94.59c0-3.28-.92-5.71-2.76-7.32s-4.68-2.42-8.53-2.42q-.76,0-1.83.09c-.7.06-1.76.17-3.18.34v55.31H624v-122h33.32c9,0,22,.48,27.19,4.39,5.83,4.37,11.66,11.12,11.66,18.12V54.63c0,5.37-4.52,10.13-7.5,13.35s-11.53,6.11-16.88,6.46c6.39.51,15.82,2.55,19,6,3.74,4.18,5.65,10.33,5.65,17.45v36.9a10,10,0,0,0,1.15,3,13.26,13.26,0,0,0,2.16,2.76"/><path class="cls-2" d="M817.09,143.63c-12.12,0-20.51-3-25.13-7.64a35.5,35.5,0,0,1-10.17-25.21v-64c0-12.19,5.59-18.32,10.21-23s13-7.29,25.09-7.29,22.36,1.55,27,6.27a32.32,32.32,0,0,1,9.8,24V62.55H825.15v-16q0-5.93-1.83-8.5c-1.21-1.72-3.61-2.58-6.38-2.58s-3.48.84-4.64,2.49-1.74,5.15-1.74,9v63.66c0,4,.55,9,1.65,10.6s2,2.42,4.73,2.42,5.25-.89,6.43-2.67,1.79-7.11,1.79-11.44V93h29v17.79c0,12.07-4.38,19.51-10,25.55-4.51,4.85-14.59,7.29-27,7.29"/><path class="cls-2" d="M739.73,38.1l-6.86,53.63h11.41L739.73,38.1m37.67,102.48H749.16l-2.79-29.89H730.25l-4.1,29.89H702L722.22,19.21h39.36l15.83,121.38"/><path class="cls-2" d="M315,170.47q6.86,6.7,6.86,19.37,0,13-6.86,19.93t-19.53,6.94H278.82V163.77h16.68Q308.18,163.77,315,170.47Zm-3,36.58q5.66-6,5.66-17.21,0-10.75-5.66-16.56t-16.24-5.82h-13V213h13Q306.42,213,312.07,207Z"/><path class="cls-2" d="M387.44,216.72h-4V163.77h4Z"/><path class="cls-2" d="M494.36,190.81v25.91h-3.21l-.16-9.22a15.75,15.75,0,0,1-6.78,7.42,23,23,0,0,1-11.43,2.61,23.63,23.63,0,0,1-12.63-3.33,21.79,21.79,0,0,1-8.34-9.51,33.36,33.36,0,0,1-2.93-14.44,32.63,32.63,0,0,1,3-14.44,22.22,22.22,0,0,1,8.46-9.51A23.85,23.85,0,0,1,473,163q8.1,0,13.24,3.21A19.4,19.4,0,0,1,494,176l-3.69,1.93a15.45,15.45,0,0,0-6.22-8.38,19.84,19.84,0,0,0-11-2.85,19.06,19.06,0,0,0-10.43,2.85,18.78,18.78,0,0,0-7,8.18,29.46,29.46,0,0,0-2.49,12.55q0,11,5.25,17.29t14.56,6.3a19.48,19.48,0,0,0,9.79-2.29,14.6,14.6,0,0,0,5.94-6,17.15,17.15,0,0,0,1.92-8v-3h-18v-3.77Z"/><path class="cls-2" d="M560.7,216.72h-4V163.77h4Z"/><path class="cls-2" d="M661.61,167.46H642.28v49.25h-4V167.46H618.94v-3.69h42.67Z"/><path class="cls-2" d="M741.59,200.11H716.24l-6.58,16.6h-4.25l21.18-52.94h4.73l21.18,52.94h-4.25Zm-1.44-3.69-9.22-23.1L729,167.7h-.08L727,173.16l-9.23,23.26Z"/><path class="cls-2" d="M846.27,213v3.69H810.49V163.77h4V213Z"/></g></g></svg>